HIERARCHY
ROOT ui
{
	 OFFSET 0 0 0
	 CHANNELS 3 XPosition YPosition Z Position
	 EndSite
	 {
	 OFFSET 0 -1 0
	 }
}
ROOT li
{
	 OFFSET 0 0 0
	 CHANNELS 3 XPosition YPosition Z Position
	 EndSite
	 {
	 OFFSET 0 -1 0
	 }
}
ROOT ul
{
	 OFFSET 0 0 0
	 CHANNELS 3 XPosition YPosition Z Position
	 EndSite
	 {
	 OFFSET 0 -1 0
	 }
}
ROOT ll
{
	 OFFSET 0 0 0
	 CHANNELS 3 XPosition YPosition Z Position
	 EndSite
	 {
	 OFFSET 0 -1 0
	 }
}
ROOT tt
{
	 OFFSET 0 0 0
	 CHANNELS 3 XPosition YPosition Z Position
	 EndSite
	 {
	 OFFSET 0 -1 0
	 }
}
ROOT tb
{
	 OFFSET 0 0 0
	 CHANNELS 3 XPosition YPosition Z Position
	 EndSite
	 {
	 OFFSET 0 -1 0
	 }
}
ROOT td
{
	 OFFSET 0 0 0
	 CHANNELS 3 XPosition YPosition Z Position
	 EndSite
	 {
	 OFFSET 0 -1 0
	 }
}
ROOT v
{
	 OFFSET 0 0 0
	 CHANNELS 3 XPosition YPosition Z Position
	 EndSite
	 {
	 OFFSET 0 -1 0
	 }
}
ROOT bn
{
	 OFFSET 0 0 0
	 CHANNELS 3 XPosition YPosition Z Position
	 EndSite
	 {
	 OFFSET 0 -1 0
	 }
}
MOTION
Frames: 27
Frame Time: 0.002
0.005906871795654297	8.184919953346252E-4	0		0.46082186889648435	-2.349086181640625	0		-1.0566627197265626	0.09553346252441407	0		-0.6568882446289063	-2.622503662109375	0		1.471056640625	-0.6626821899414063	0		3.10102734375	-0.07775542449951171	0		4.60801708984375	0.08916211700439453	0		5.59021923828125	0.13614389038085936	0		-0.22980598449707032	5.902564453125	0		
4.2155501246452334E-4	0.004773764133453369	0		0.48695352172851564	-2.352494384765625	0		-1.06907861328125	0.1052697525024414	0		-0.7393948364257813	-2.60848193359375	0		1.4540257568359376	-0.6430740966796875	0		3.072324462890625	-0.08745336151123047	0		4.6002265625	0.07759287261962891	0		5.58055615234375	0.13236006164550781	0		-0.3674972229003906	5.88557373046875	0		
7.889699935913086E-4	-0.0033586790561676025	0		0.483117919921875	-2.357392333984375	0		-1.0696146240234374	0.10481281280517578	0		-0.6722384033203125	-2.61990673828125	0		1.450663330078125	-0.6466815185546875	0		3.0959423828125	-0.08098114013671875	0		4.59969873046875	0.07893555450439453	0		5.58441064453125	0.11771596527099609	0		-0.3850425720214844	5.8745810546875	0		
-0.004587926864624023	0.0016123349666595458	0		0.45745635986328126	-2.3539384765625	0		-1.0701048583984376	0.10436747741699219	0		-0.708846923828125	-2.61864501953125	0		1.44736376953125	-0.6492825317382812	0		3.0924326171875	-0.08506181335449219	0		4.5943427734375	0.08836009216308593	0		5.5799677734375	0.1380055847167969	0		-0.3873569030761719	5.87435205078125	0		
-0.0031261579990386965	-0.00651554012298584	0		0.45777215576171876	-2.35389306640625	0		-1.070551513671875	0.10393897247314453	0		-0.6606087036132813	-2.62969970703125	0		1.4532579345703125	-0.6420234375	0		3.0902294921875	-0.07216988372802734	0		4.5918857421875	0.08871939086914063	0		5.57968603515625	0.135602783203125	0		-0.3744254760742188	5.88490234375	0		
-0.001331805944442749	0.00436657190322876	0		0.4621811218261719	-2.34890185546875	0		-1.146932373046875	0.1056794204711914	0		-0.7378960571289063	-2.6098076171875	0		1.453077392578125	-0.641672119140625	0		3.0996650390625	-0.08547608947753907	0		4.602484375	0.08984776306152344	0		5.5865966796875	0.138055419921875	0		-0.3765675354003906	5.8847041015625	0		
0.02332963752746582	0.003922194004058838	0		0.5144434814453125	-2.354612060546875	0		-1.071320556640625	0.10314957427978516	0		-0.6696046752929687	-2.619100341796875	0		1.4529276123046875	-0.6413271484375	0		3.094459228515625	-0.07758343505859375	0		4.58722900390625	0.09832150268554687	0		5.582228515625	0.15812811279296876	0		-0.259447509765625	5.8937578125	0		
-0.001083704948425293	-0.003782855987548828	0		0.4587945251464844	-2.353718505859375	0		-1.0716470947265626	0.10279547119140625	0		-0.6702161865234375	-2.621329833984375	0		1.4668756103515626	-0.6361953125	0		3.094181884765625	-0.07679882049560546	0		4.59769873046875	0.0853556900024414	0		5.57912890625	0.14861872863769532	0		-0.43071722412109376	5.87008544921875	0		
-0.006277966976165772	0.0012391060590744019	0		0.4762154541015625	-2.347892578125	0		-1.0810396728515625	0.09560099792480468	0		-0.6718388671875	-2.623521484375	0		1.416191162109375	-0.6061419067382813	0		3.064951416015625	-0.07463911437988281	0		4.5874248046875	0.08762991333007812	0		5.576021484375	0.13377906799316405	0		-0.39743756103515626	5.87342578125	0		
-0.006519722938537598	0.001201660990715027	0		0.43552432250976564	-2.348239013671875	0		-1.1481849365234376	0.10424732208251954	0		-0.6935081787109375	-2.627408447265625	0		1.452613037109375	-0.640356201171875	0		3.104527099609375	-0.08850404357910156	0		4.6012451171875	0.09449153900146484	0		5.58593994140625	0.1477559814453125	0		-0.3819700622558594	5.88105517578125	0		
0.007174945831298828	-0.005015785217285156	0		0.4658448486328125	-2.3465810546875	0		-1.062464599609375	0.10078292083740234	0		-0.7250512084960937	-2.62014208984375	0		1.435590087890625	-0.6358250122070312	0		3.100657958984375	-0.06379119110107422	0		4.5940869140625	0.1015768051147461	0		5.5880234375	0.16185113525390624	0		-0.3844566650390625	5.88296142578125	0		
-0.002904982089996338	0.004111282825469971	0		0.4551952209472656	-2.34034765625	0		-1.0726746826171876	0.10169552612304687	0		-0.6677201538085937	-2.620074462890625	0		1.469578369140625	-0.6310096435546875	0		3.093317138671875	-0.07408075714111328	0		4.59587548828125	0.1034639663696289	0		5.58569873046875	0.1517159423828125	0		-0.3868310241699219	5.8838876953125	0		
-0.0030982680320739745	0.0041145658493042	0		0.514210205078125	-2.35705224609375	0		-1.0728858642578125	0.10150320434570312	0		-0.7054436645507812	-2.620681884765625	0		1.417895751953125	-0.601040771484375	0		3.07915283203125	-0.0723232650756836	0		4.59158349609375	0.09836240386962891	0		5.57848486328125	0.15888841247558594	0		-0.4032458801269531	5.8730234375	0		
-0.0023900070190429686	-0.0038810300827026366	0		0.4604598388671875	-2.353233154296875	0		-1.0781400146484375	0.09740998840332031	0		-0.6702378540039062	-2.624245361328125	0		1.435742431640625	-0.60602734375	0		3.089899169921875	-0.0779420394897461	0		4.59627587890625	0.09107359313964844	0		5.57837646484375	0.16049307250976563	0		-0.40440194702148435	5.87297412109375	0		
-0.007503893852233887	0.0012147079706192017	0		0.46265673828125	-2.351159912109375	0		-1.0732830810546874	0.10121392059326172	0		-0.7409417114257812	-2.617383056640625	0		1.4322325439453125	-0.6377399291992187	0		3.087887939453125	-0.0654245834350586	0		4.60017333984375	0.09873763275146484	0		5.58537255859375	0.15655116271972655	0		-0.4044725646972656	5.871931640625	0		
-0.003644282102584839	0.004205393791198731	0		0.4648340759277344	-2.34807958984375	0		-1.0734755859375	0.10111296081542968	0		-0.6667994384765625	-2.620400390625	0		1.4492552490234376	-0.6287243041992188	0		3.08354931640625	-0.07791075134277343	0		4.59998095703125	0.09940253448486328	0		5.5852646484375	0.15791448974609376	0		-0.2580147705078125	5.90400830078125	0		
0.0011246769428253174	1.9730499386787416E-4	0		0.4888764953613281	-2.35327490234375	0		-1.07366650390625	0.10103794860839843	0		-0.7026415405273437	-2.61896240234375	0		1.4175166015625	-0.6000809936523438	0		3.091611328125	-0.05958142471313477	0		4.5997900390625	0.10002191162109375	0		5.5873857421875	0.17641091918945312	0		-0.2720693359375	5.892201171875	0		
-0.00804079246520996	0.001379986047744751	0		0.48006143188476563	-2.34503857421875	0		-1.073856689453125	0.10098663330078125	0		-0.6695963745117187	-2.62439306640625	0		1.4373897705078125	-0.6011110229492187	0		3.09634912109375	-0.06623384094238281	0		4.59960009765625	0.10060004425048828	0		5.58504296875	0.16035441589355467	0		-0.408158935546875	5.872962890625	0		
-0.008219834327697753	0.0014569900035858155	0		0.4610174560546875	-2.352671630859375	0		-1.074045654296875	0.10095697784423828	0		-0.7064970092773437	-2.6229140625	0		1.41523486328125	-0.6036106567382813	0		3.092114013671875	-0.07079512023925781	0		4.59532275390625	0.09418936157226562	0		5.58201318359375	0.149421875	0		-0.4079383239746094	5.8719873046875	0		
-0.003460423946380615	-0.0035200610160827637	0		0.463076171875	-2.3505693359375	0		-1.07423193359375	0.10094680786132812	0		-0.6585685424804687	-2.63349365234375	0		1.4350975341796874	-0.60464892578125	0		3.087780029296875	-0.08338043975830078	0		4.5782265625	0.10190065002441406	0		5.57768359375	0.1626647186279297	0		-0.3925301818847656	5.8808349609375	0		
-0.0045324831008911135	0.004584237098693848	0		0.46715374755859373	-2.345489990234375	0		-1.1344825439453126	0.09570352172851562	0		-0.7233755493164062	-2.620642822265625	0		1.4546097412109376	-0.6336890869140624	0		3.09583837890625	-0.06514237213134766	0		4.602119140625	0.10805888366699219	0		5.5869052734375	0.17541361999511718	0		-0.39317230224609373	5.880896484375	0		
0.02523939514160156	-6.907740235328674E-4	0		0.49109280395507815	-2.350656982421875	0		-1.0745828857421875	0.1009749526977539	0		-0.6673697509765625	-2.6222919921875	0		1.436902587890625	-0.6002673950195313	0		3.067545166015625	-0.07547669982910156	0		4.59887353515625	0.10252057647705078	0		5.58459716796875	0.16421444702148438	0		-0.4098634643554688	5.87216552734375	0		
-0.003946556091308594	-0.0032303659915924074	0		0.4630920104980469	-2.350179931640625	0		-1.0747403564453124	0.10100748443603516	0		-0.7043403930664063	-2.620776611328125	0		1.434739990234375	-0.604051513671875	0		3.09147119140625	-0.06947999572753906	0		4.58972900390625	0.10402194213867187	0		5.58158447265625	0.15296551513671874	0		-0.44444403076171873	5.86766015625	0		
-0.009021733283996582	0.0019316840171813964	0		0.4870240478515625	-2.355347412109375	0		-1.07488330078125	0.10104801940917969	0		-0.6822945556640625	-2.617986083984375	0		1.414650634765625	-0.60262353515625	0		3.0822646484375	-0.07509330749511718	0		4.58757373046875	0.10340666961669921	0		5.5743623046875	0.1538907012939453	0		-0.2765928955078125	5.89266796875	0		
-0.007242084980010987	-0.005992341995239258	0		0.4371238403320313	-2.3466103515625	0		-1.15099267578125	0.10302426147460937	0		-0.7293897705078125	-2.62634423828125	0		1.416608154296875	-0.598475830078125	0		3.10130419921875	-0.06206939315795899	0		4.60234765625	0.09555795288085937	0		5.58432861328125	0.16636192321777343	0		-0.3961414794921875	5.88321240234375	0		
0.02472397804260254	-2.8534799814224245E-4	0		0.49108737182617185	-2.350150390625	0		-1.075120361328125	0.10114169311523437	0		-0.6662918701171875	-2.620049072265625	0		1.4451383056640625	-0.6306631469726562	0		3.071106689453125	-0.06946022033691407	0		4.59649462890625	0.1169419937133789	0		5.58426025390625	0.16697550964355468	0		-0.2774071350097656	5.89183984375	0		
-0.00529914903640747	0.005175347805023193	0		0.46513922119140627	-2.346718505859375	0		-1.0752108154296875	0.10119137573242187	0		-0.6672911987304687	-2.6219697265625	0		1.4364564208984374	-0.5993994750976562	0		3.106033203125	-0.0686604232788086	0		4.59416064453125	0.09725787353515625	0		5.5906142578125	0.16562521362304689	0		-0.39588021850585936	5.88135888671875	0		
